<?xml version="1.0" standalone="no"?>
<!DOCTYPE svg PUBLIC "-//W3C//DTD SVG 20010904//EN"
 "http://www.w3.org/TR/2001/REC-SVG-20010904/DTD/svg10.dtd">
<svg version="1.0" xmlns="http://www.w3.org/2000/svg"
 width="512.000000pt" height="512.000000pt" viewBox="0 0 512.000000 512.000000"
 preserveAspectRatio="xMidYMid meet">
<metadata>
Created by potrace 1.14, written by Peter Selinger 2001-2017
</metadata>
<g transform="translate(0.000000,512.000000) scale(0.100000,-0.100000)"
fill="#000000" stroke="none">
<path d="M1965 4035 c-107 -24 -202 -74 -277 -147 -18 -18 -71 -80 -118 -138
-46 -58 -98 -121 -114 -141 -17 -19 -40 -46 -51 -60 -11 -13 -40 -49 -65 -79
-25 -30 -47 -57 -50 -60 -3 -3 -23 -27 -45 -55 -22 -27 -53 -66 -70 -86 -16
-19 -39 -46 -50 -60 -11 -13 -40 -49 -65 -79 -25 -30 -52 -64 -61 -75 -24 -29
-228 -276 -247 -300 -9 -11 -55 -68 -102 -125 -46 -58 -87 -107 -90 -110 -3
-3 -35 -41 -70 -85 -36 -44 -69 -85 -75 -91 -5 -6 -23 -28 -40 -50 -16 -21
-76 -94 -133 -162 -159 -192 -178 -221 -214 -322 -39 -107 -28 -298 22 -405
29 -61 90 -143 140 -188 61 -55 171 -112 255 -132 78 -18 233 -13 300 10 135
46 215 110 355 285 82 102 96 119 138 168 11 13 35 42 54 64 28 35 66 81 166
203 10 11 37 45 62 75 25 30 49 60 55 66 5 6 24 28 40 49 17 21 35 43 40 49 6
6 37 45 70 86 33 41 70 86 82 100 12 14 53 63 90 109 37 46 72 85 76 85 5 1
57 -93 116 -209 480 -942 458 -900 516 -966 172 -195 486 -244 713 -112 85 50
111 75 252 248 63 77 117 142 120 145 4 4 86 104 150 184 8 10 20 23 25 30 9
9 83 100 160 195 11 13 34 41 50 60 17 20 48 59 70 86 22 28 42 52 45 55 3 3
66 79 140 170 74 91 142 174 152 185 9 11 53 65 98 120 45 55 91 111 102 124
11 13 79 96 151 185 72 88 138 168 146 176 34 34 91 136 113 198 18 55 22 88
22 182 0 103 -3 122 -29 185 -58 144 -144 240 -271 307 -94 50 -177 68 -294
64 -181 -6 -324 -84 -450 -245 -19 -24 -40 -49 -45 -55 -6 -6 -28 -33 -50 -61
-47 -59 -76 -94 -90 -109 -6 -6 -47 -57 -92 -112 -45 -56 -88 -108 -95 -115
-7 -8 -31 -36 -53 -64 -22 -27 -85 -104 -140 -170 -55 -67 -116 -141 -135
-165 -133 -166 -224 -270 -230 -263 -4 4 -74 139 -155 298 -424 833 -420 827
-487 894 -136 138 -345 199 -533 156z"/>
</g>
</svg>
